PathFileType	4	(X/Y/Z)	D:\TRACE\spot_10-12-23\spot_arm_body_motion_3_4-platform.trc
DataRate	CameraRate	NumFrames	NumMarkers	Units	OrigDataRate	OrigDataStartFrame	OrigNumFrames
100.00	100.00	      36	5	mm	100.00	1751	      7000
Frame#	Time	Left_Front			Right_Front			Left_Aft			Right_Aft			Post			
		X1	Y1	Z1	X2	Y2	Z2	X3	Y3	Z3	X4	Y4	Z4	X5	Y5	Z5	

1751	17.500	-764.49603	28.71263	-635.88489	808.37524	33.41047	-628.98315	-681.22351	-10.57216	501.63721	735.97913	-8.59914	587.65149	18.81975	776.64594	-928.39771	
1752	17.510	-764.36401	28.78653	-635.89642	808.42102	33.36372	-628.96942	-681.22400	-10.54277	501.62408	736.08246	-8.57594	587.64319	18.93496	776.63110	-928.63330	
1753	17.520	-764.30902	28.86788	-635.84583	808.40894	33.39874	-628.99396	-681.16241	-10.57253	501.61490	736.14117	-8.56908	587.65002	18.94155	776.60602	-928.95764	
1754	17.530	-764.27209	28.86189	-635.87646	808.50403	33.50439	-628.95013	-681.08600	-10.50869	501.63931	736.14441	-8.56102	587.67499	19.06156	776.62817	-929.15552	
1755	17.540	-764.30072	28.80437	-635.84534	808.47461	33.50076	-628.94727	-681.04718	-10.53889	501.59256	736.19971	-8.52040	587.67139	18.99679	776.65851	-929.42670	
1756	17.550	-764.29291	28.78225	-635.86658	808.49945	33.44520	-628.98718	-681.03424	-10.58192	501.59174	736.18994	-8.56299	587.65662	19.13905	776.75006	-929.36438	
1757	17.560	-764.22333	28.84913	-635.88306	808.49335	33.48724	-628.96722	-680.92999	-10.61238	501.60602	736.22900	-8.60805	587.65295	19.11926	776.84973	-929.38165	
1758	17.570	-764.25769	28.89262	-635.84167	808.51080	33.49929	-628.95819	-681.00574	-10.62740	501.62338	736.22742	-8.57798	587.65771	19.12257	776.75824	-929.44537	
1759	17.580	-764.24646	28.91259	-635.85980	808.52246	33.53203	-628.94165	-681.14294	-10.54827	501.62390	736.26733	-8.60685	587.67236	19.23187	776.81543	-929.22406	
1760	17.590	-764.23682	28.83528	-635.85516	808.42200	33.60303	-628.93939	-681.12628	-10.56339	501.64011	736.24701	-8.57984	587.71008	19.09559	776.75006	-929.28912	
1761	17.600	-764.25677	28.83826	-635.86774	808.51581	33.52251	-628.94476	-681.11273	-10.55178	501.64944	736.24347	-8.62888	587.69708	19.12792	776.66644	-929.04132	
1762	17.610	-764.19659	28.84022	-635.85632	808.48541	33.50579	-628.96277	-681.11267	-10.60973	501.63687	736.20227	-8.67929	587.67120	18.98123	776.81238	-928.82104	
1763	17.620	-764.22699	28.91724	-635.83142	808.41095	33.62926	-628.96667	-681.12463	-10.64670	501.66345	736.26685	-8.67846	587.67688	18.94824	776.95679	-928.49677	
1764	17.630	-764.18195	28.92239	-635.84790	808.45020	33.62256	-628.95038	-681.13599	-10.61767	501.64932	736.27307	-8.68183	587.71515	18.92381	776.97681	-928.36847	
1765	17.640	-764.17303	29.00752	-635.83221	808.53046	33.73021	-628.89075	-681.12860	-10.60569	501.68045	736.28595	-8.71572	587.73834	18.92244	777.03394	-928.32135	
1766	17.650	-764.20868	29.04795	-635.79987	808.55487	33.80301	-628.83563	-681.09509	-10.70034	501.67661	736.27234	-8.79171	587.74036	18.87502	777.18921	-928.24445	
1767	17.660	-764.17529	29.10560	-635.79095	808.47400	33.88447	-628.83539	-681.05109	-10.78353	501.70004	736.30231	-8.88327	587.76959	18.82883	777.33179	-928.26648	
1768	17.670	-764.19629	29.20108	-635.77838	808.49524	33.90595	-628.84363	-681.13611	-10.77430	501.70065	736.31073	-8.94431	587.76611	18.79737	777.55035	-928.34326	
1769	17.680	-764.18250	29.30089	-635.76752	808.54272	33.98730	-628.83020	-681.09302	-10.85370	501.62906	736.34998	-9.00418	587.77875	18.79404	777.70721	-928.42596	
1770	17.690	-764.13892	29.33569	-635.73291	808.55273	34.06265	-628.78174	-681.09235	-10.82364	501.71783	736.37891	-9.02237	587.77216	18.77736	777.83966	-928.45789	
1771	17.700	-764.15729	29.41638	-635.72351	808.45935	34.14010	-628.79456	-681.08643	-10.92335	501.67175	736.37134	-9.06896	587.78015	18.73033	777.93390	-928.46527	
1772	17.710	-764.24341	29.49733	-635.70343	808.42346	34.21451	-628.74182	-681.16010	-10.94723	501.67764	736.31653	-9.11698	587.80371	18.67207	778.03320	-928.42188	
1773	17.720	-764.24872	29.31231	-635.58655	808.28754	34.22543	-628.73749	-681.21075	-11.00613	501.84576	736.13434	-9.25427	587.78375	18.55201	778.14526	-928.35345	
1774	17.730	-764.56451	29.56796	-635.57404	808.08423	34.33554	-628.71088	-681.38531	-11.03942	501.75204	735.93616	-9.33200	587.81018	18.46151	778.21674	-928.12817	
1775	17.740	-764.73950	29.65011	-635.55475	807.90039	34.44015	-628.67273	-681.41266	-11.03394	501.78900	735.78473	-9.41885	587.82959	18.22067	778.39777	-927.89886	
1776	17.750	-765.00342	29.88448	-635.52338	807.77258	34.50538	-628.61816	-681.63190	-11.16550	502.00098	735.57263	-9.48002	587.81177	18.13662	778.51379	-927.68018	
1777	17.760	-765.10797	30.05330	-635.48846	807.57117	34.58273	-628.68011	-681.92719	-11.21098	501.81268	735.46509	-9.56826	587.83472	18.08468	778.66107	-927.41614	
1778	17.770	-765.18671	30.07234	-635.46893	807.48828	34.62193	-628.70490	-681.99524	-11.35451	501.82858	735.33154	-9.67732	587.84918	17.98850	778.74829	-927.22089	
1779	17.780	-765.31403	30.16480	-635.43689	807.36145	34.67228	-628.71436	-682.14716	-11.49335	501.77756	735.16656	-9.79842	587.80359	17.85058	778.79767	-926.96509	
1780	17.790	-765.45459	30.23531	-635.41919	807.24792	34.78273	-628.65405	-682.35260	-11.54387	501.82657	734.96381	-9.95529	587.83618	17.63912	778.91077	-926.70605	
1781	17.800	-765.64008	30.22073	-635.29718	806.98169	35.01171	-628.63446	-682.52692	-11.65080	501.81183	734.83386	-10.07657	587.81470	17.41718	779.00952	-926.44592	
1782	17.810	-765.91589	30.47172	-635.31384	806.89526	35.11874	-628.51031	-682.75574	-11.71939	501.82019	734.68549	-10.17937	587.88983	17.20302	779.28644	-926.36658	
1783	17.820	-766.13739	30.76273	-635.38287	806.62244	35.30685	-628.49506	-682.89374	-11.81839	501.85269	734.51953	-10.28977	588.01941	16.90025	779.62708	-926.22498	
1784	17.830	-766.31940	31.01283	-635.35986	806.42395	35.49387	-628.44092	-683.08606	-11.90543	501.87604	734.26697	-10.43393	588.11133	16.69585	779.88849	-926.17731	
1785	17.840	-766.53735	31.18086	-635.36865	806.23291	35.62907	-628.36017	-683.22156	-12.02008	501.90588	734.07495	-10.51819	588.22162	16.48998	780.18585	-926.04614	
1786	17.850	-766.56549	31.18089	-635.31683	806.04224	35.75810	-628.23547	-683.37885	-12.12190	501.97095	733.85059	-10.62496	588.26886	16.49003	780.48010	-925.94769	
